<?xml version="1.0" standalone="no"?>
<!DOCTYPE svg PUBLIC "-//W3C//DTD SVG 20010904//EN"
 "http://www.w3.org/TR/2001/REC-SVG-20010904/DTD/svg10.dtd">
<svg version="1.0" xmlns="http://www.w3.org/2000/svg"
 width="650.000000pt" height="650.000000pt" viewBox="0 0 650.000000 650.000000"
 preserveAspectRatio="xMidYMid meet">
<metadata>
Created by potrace 1.14, written by Peter Selinger 2001-2017
</metadata>
<g transform="translate(0.000000,650.000000) scale(0.100000,-0.100000)"
fill="#000000" stroke="none">
<path d="M770 5801 l0 -436 1445 0 c1278 0 1445 2 1446 15 1 19 1 831 0 846
-1 8 -404 11 -1446 11 l-1445 0 0 -436z"/>
<path d="M2029 4846 c-2 -2 -45 -7 -96 -10 -50 -4 -100 -8 -110 -10 -10 -2
-40 -7 -68 -10 -213 -30 -458 -104 -645 -194 -521 -252 -859 -688 -1014 -1307
-13 -55 -27 -118 -30 -140 -3 -22 -8 -51 -11 -65 -10 -55 -15 -88 -21 -145 -3
-33 -10 -91 -14 -130 -8 -75 -5 -537 4 -595 3 -19 7 -60 11 -90 3 -30 7 -66 9
-80 3 -14 7 -47 11 -74 3 -27 19 -105 35 -175 117 -520 346 -895 719 -1181
189 -146 536 -290 801 -335 178 -29 200 -32 335 -41 162 -11 511 -5 590 10 11
2 49 7 85 11 36 4 74 9 85 11 11 2 38 6 60 10 22 3 99 21 170 39 622 156 1049
520 1283 1092 36 87 95 270 106 327 2 12 13 64 25 116 11 52 22 113 25 135 3
22 8 56 11 75 41 279 38 703 -6 975 -6 33 -12 71 -14 85 -2 14 -13 66 -24 115
-107 473 -337 862 -671 1137 -265 218 -671 383 -1045 424 -27 3 -61 8 -75 11
-30 6 -514 15 -521 9z m274 -1101 c156 -18 267 -126 326 -319 12 -38 23 -83
26 -100 3 -17 7 -42 10 -56 4 -23 8 -53 20 -175 20 -190 20 -801 0 -1010 -4
-33 -8 -87 -11 -120 -7 -89 -41 -245 -70 -327 -72 -198 -191 -289 -379 -289
-84 0 -130 9 -190 37 -151 70 -246 269 -281 589 -3 28 -7 64 -10 80 -23 160
-22 974 1 1048 2 7 6 41 10 76 13 135 60 302 109 385 62 104 169 174 280 183
33 3 63 7 65 9 3 2 12 2 20 0 9 -2 42 -7 74 -11z"/>
<path d="M4807 4725 c-6 -20 0 -901 7 -955 8 -63 13 -104 21 -175 3 -27 7 -70
10 -95 10 -86 15 -125 20 -175 3 -27 8 -67 10 -87 12 -97 14 -117 21 -178 3
-36 8 -73 9 -82 2 -9 6 -43 9 -75 10 -100 17 -156 26 -233 14 -112 20 -169 26
-231 2 -30 6 -65 9 -77 2 -11 7 -52 11 -89 3 -37 8 -75 9 -83 2 -8 4 -27 4
-42 l1 -28 639 0 c601 0 640 1 645 18 2 9 7 42 11 72 11 101 17 145 29 245 13
101 47 385 52 425 3 25 7 56 9 70 2 14 7 50 10 80 7 67 13 112 35 290 14 115
18 145 25 210 3 30 8 66 10 80 2 14 7 50 10 81 3 31 8 67 11 80 4 19 7 747 5
929 l-1 35 -840 0 c-553 0 -841 -3 -843 -10z"/>
<path d="M4859 1755 c-1 -28 -1 -1346 0 -1367 1 -17 45 -18 786 -18 l785 0 0
700 0 700 -77 0 c-43 1 -396 2 -786 3 -701 2 -707 2 -708 -18z"/>
</g>
</svg>
